<svg version="1.1" id="Layer_1" xmlns="http://www.w3.org/2000/svg" xmlns:xlink="http://www.w3.org/1999/xlink" x="0px" y="0px"
	 width="100%" viewBox="0 0 192 192" enable-background="new 0 0 192 192" xml:space="preserve">

<path fill="#27AF79" opacity="1.000000" stroke="none" 
	d="
M76.034889,154.858643 
	C76.346550,154.761032 76.658211,154.663406 77.578979,154.741547 
	C79.122253,154.636627 80.056435,154.355942 80.990608,154.075241 
	C80.990608,154.075241 81.416275,153.887299 81.810959,153.926910 
	C82.427437,153.942886 82.629608,153.866974 82.812134,153.738800 
	C83.600784,153.508087 84.389427,153.277359 85.884109,153.329620 
	C88.558746,153.744080 90.529068,153.854095 92.495514,154.012421 
	C94.978523,154.212357 97.180489,154.765350 96.997581,157.994965 
	C73.203682,165.943161 49.345749,168.786102 25.188362,158.216461 
	C26.817114,157.024261 28.569714,156.133865 30.356689,156.058487 
	C39.214119,155.684906 48.080620,155.526443 56.943928,155.292191 
	C61.663609,155.229218 66.383293,155.166260 71.809853,155.373627 
	C73.689445,155.382202 74.862167,155.120422 76.034889,154.858643 
z"/>
<path fill="#2BA6DA" opacity="1.000000" stroke="none" 
	d="
M34.202396,113.940025 
	C34.154057,98.385773 33.958557,82.829872 34.131874,67.278091 
	C34.198536,61.296356 37.390411,56.639267 42.885323,53.054779 
	C44.704391,52.294933 45.837749,51.609154 46.971111,50.923374 
	C46.971111,50.923374 46.992149,50.994797 47.423386,50.995411 
	C51.062160,50.996025 54.269699,50.996025 57.227875,50.996025 
	C54.932796,55.099079 52.986046,58.579407 51.039291,62.059738 
	C51.039291,62.059738 51.000687,62.005581 50.793816,62.111130 
	C50.398415,62.492443 50.209885,62.768208 50.021355,63.043972 
	C50.021355,63.043972 49.999565,62.999477 49.785366,63.115017 
	C49.397934,63.520721 49.224701,63.810886 49.051472,64.101051 
	C49.051472,64.101051 49.024311,64.027405 48.792358,64.187630 
	C48.418144,64.730141 48.275875,65.112427 48.133606,65.494705 
	C47.892132,66.177582 47.650658,66.860458 47.029469,67.896637 
	C46.682220,68.844917 46.714687,69.439888 46.747154,70.034859 
	C46.663280,71.787514 46.579407,73.540169 45.933395,75.653198 
	C44.579487,77.343483 43.701981,78.630875 43.016315,80.013405 
	C42.020164,82.021950 41.556458,85.520386 40.177860,85.902618 
	C33.995487,87.616730 34.924995,92.143906 35.000900,96.544334 
	C35.055305,99.698097 35.031418,102.853203 35.030815,106.443726 
	C35.019741,108.913773 35.020309,110.947800 34.937119,113.183304 
	C34.705734,113.651184 34.488747,113.836266 34.202396,113.940025 
z"/>
<path fill="#2FAADD" opacity="1.000000" stroke="none" 
	d="
M113.874748,41.992046 
	C114.122559,42.215878 114.370369,42.439713 114.963539,43.188324 
	C115.541298,45.806499 115.773705,47.899891 116.003540,49.996193 
	C116.000984,49.999104 115.999084,50.001526 115.564636,50.000854 
	C110.035042,49.666439 104.943832,49.152954 99.843826,49.041344 
	C92.305939,48.876381 84.761803,48.998886 77.220322,48.995049 
	C74.502800,48.993668 71.785271,48.980915 69.067749,48.973351 
	C69.689651,43.895023 73.168182,42.576035 77.529518,42.873444 
	C81.614532,43.152008 84.528839,42.770821 84.503876,37.459949 
	C84.494225,35.407177 86.288918,33.345924 88.002075,31.128277 
	C93.181633,31.763920 97.620705,32.559822 101.629768,33.360931 
	C99.076706,33.530548 96.615204,33.087685 94.925346,34.029438 
	C93.220940,34.979309 92.012833,37.181065 91.147064,39.088425 
	C90.821800,39.805023 92.108543,42.209759 92.595238,42.190601 
	C97.485199,41.998070 102.361603,41.461124 107.573654,40.833569 
	C109.956757,40.427452 112.008026,40.208862 114.059303,39.990273 
	C114.069817,40.173473 114.080338,40.356682 113.795982,40.868683 
	C113.625648,41.462330 113.750198,41.727188 113.874748,41.992046 
z"/>
<path fill="#95C922" opacity="1.000000" stroke="none" 
	d="
M142.936005,137.960800 
	C144.364731,136.362732 145.814240,134.782639 147.215988,133.161240 
	C148.476471,131.703232 149.684540,130.199905 151.468689,128.050369 
	C151.468689,142.043991 151.875580,155.186142 151.207672,168.273438 
	C151.020157,171.947968 147.673248,175.461273 145.409180,178.742035 
	C144.899063,167.207397 144.841583,155.976944 144.539612,144.753067 
	C144.478363,142.476242 143.494522,140.224243 142.936005,137.960800 
z"/>
<path fill="#1976B6" opacity="1.000000" stroke="none" 
	d="
M117.206711,61.065842 
	C117.419052,63.682831 116.551880,64.880188 113.591034,64.866821 
	C99.192520,64.801788 84.792923,65.018166 70.393959,64.992111 
	C65.723572,64.983665 64.678497,61.668427 67.464958,55.279610 
	C70.495514,56.555706 73.067711,58.440437 75.860237,58.860519 
	C81.232491,59.668674 86.729729,59.643703 92.174683,59.971561 
	C97.285713,60.279320 102.393723,60.648327 107.507782,60.890717 
	C110.736275,61.043732 113.973434,61.013741 117.206711,61.065842 
z"/>
<path fill="#88C51A" opacity="1.000000" stroke="none" 
	d="
M142.627106,138.061462 
	C143.494522,140.224243 144.478363,142.476242 144.539612,144.753067 
	C144.841583,155.976944 144.899063,167.207397 145.093124,178.881271 
	C145.080246,179.644928 144.899216,179.866577 144.142563,180.088470 
	C143.377014,180.339371 143.155334,180.574860 143.019775,180.891418 
	C143.019775,180.891418 142.839935,181.154160 142.265640,181.087158 
	C140.525879,179.375214 138.419250,177.767975 138.351562,176.079025 
	C137.981888,166.855713 137.964264,157.608688 138.187302,148.378555 
	C138.237305,146.309021 138.966110,144.740341 136.012177,144.759369 
	C136.010330,144.530777 136.012054,144.073608 136.012054,144.073608 
	C136.263199,143.790344 136.514359,143.507065 137.298264,143.088501 
	C138.223877,142.629761 138.616714,142.306320 139.009552,141.982880 
	C140.112442,140.709290 141.215332,139.435699 142.627106,138.061462 
z"/>
<path fill="#81C31E" opacity="1.000000" stroke="none" 
	d="
M136.014038,144.987946 
	C138.966110,144.740341 138.237305,146.309021 138.187302,148.378555 
	C137.964264,157.608688 137.981888,166.855713 138.351562,176.079025 
	C138.419250,177.767975 140.525879,179.375214 142.106598,181.080109 
	C140.576202,182.042786 138.630539,182.945541 136.100372,183.605591 
	C134.677811,183.240295 133.839737,183.117706 132.999481,182.566513 
	C132.664856,172.798645 132.372787,163.457626 131.963501,154.121735 
	C131.888123,152.402084 131.337921,150.703247 130.996552,148.707550 
	C130.972092,148.229202 130.957962,148.038101 130.943832,147.847000 
	C131.651093,147.235840 132.358353,146.624680 133.635040,145.895569 
	C134.457886,145.491013 134.711288,145.204422 134.964691,144.917816 
	C134.964691,144.917816 135.000397,144.985474 135.236664,144.988220 
	C135.653320,144.989944 135.833679,144.988937 136.014038,144.987946 
z"/>
<path fill="#1FA0D8" opacity="1.000000" stroke="none" 
	d="
M35.042458,106.007713 
	C35.031418,102.853203 35.055305,99.698097 35.000900,96.544334 
	C34.924995,92.143906 33.995487,87.616730 40.177860,85.902618 
	C41.556458,85.520386 42.020164,82.021950 43.016315,80.013405 
	C43.701981,78.630875 44.579487,77.343483 45.788567,75.996147 
	C46.316372,82.690063 46.426865,89.401398 46.046013,96.559280 
	C43.881924,98.314575 42.157780,99.563614 40.549816,100.947639 
	C38.661346,102.573120 36.873783,104.315842 35.042458,106.007713 
z"/>
<path fill="#0C76B7" opacity="1.000000" stroke="none" 
	d="
M46.226810,127.047714 
	C46.226810,134.274963 46.226810,141.502197 46.226810,149.715668 
	C42.321747,148.193756 38.866566,146.847168 35.199936,144.782684 
	C35.006958,141.375320 35.025433,138.685852 35.393486,135.960907 
	C37.252991,135.023239 38.939907,134.320587 40.232880,133.173782 
	C42.364841,131.282822 44.242157,129.104767 46.226810,127.047714 
z"/>
<path fill="#66BE3E" opacity="1.000000" stroke="none" 
	d="
M110.954285,158.860062 
	C112.743889,157.932816 114.533485,157.005569 116.662827,156.504639 
	C117.323898,165.995789 117.645226,175.060577 117.966553,184.125381 
	C115.930069,184.226318 113.893593,184.327240 111.433220,183.865387 
	C110.513489,175.373764 110.017654,167.444916 109.521820,159.516083 
	C109.521820,159.516083 109.664253,159.531296 109.955139,159.610352 
	C110.482101,159.412964 110.718193,159.136505 110.954285,158.860062 
z"/>
<path fill="#71C038" opacity="1.000000" stroke="none" 
	d="
M118.366669,184.284973 
	C117.645226,175.060577 117.323898,165.995789 117.004051,156.461594 
	C117.005524,155.992203 117.177040,155.797760 117.615005,155.795868 
	C118.362534,155.516296 118.672112,155.238617 118.981689,154.960938 
	C119.797043,154.422058 120.612389,153.883179 121.731781,153.702148 
	C122.356590,156.160568 122.925797,158.257843 122.953896,160.362320 
	C123.059692,168.286316 122.989304,176.212662 122.984909,184.138138 
	C121.578865,184.240280 120.172829,184.342407 118.366669,184.284973 
z"/>
<path fill="#239DD5" opacity="1.000000" stroke="none" 
	d="
M68.923111,49.254280 
	C71.785271,48.980915 74.502800,48.993668 77.220322,48.995049 
	C84.761803,48.998886 92.305939,48.876381 99.843826,49.041344 
	C104.943832,49.152954 110.035042,49.666439 115.565445,50.400219 
	C116.000061,51.865402 115.999420,52.930542 115.553528,53.997566 
	C99.738075,53.349117 84.367867,52.698784 68.921730,51.881134 
	C68.845802,51.713818 68.798233,51.349430 68.798233,51.349430 
	C68.791641,50.744690 68.785057,50.139950 68.923111,49.254280 
z"/>
<path fill="#44B6E2" opacity="1.000000" stroke="none" 
	d="
M102.059769,33.355728 
	C97.620705,32.559822 93.181633,31.763920 88.300461,30.941235 
	C92.091309,25.219219 98.102852,25.187614 103.909996,26.803350 
	C109.812866,28.445713 113.809883,32.544292 114.130028,39.593964 
	C112.008026,40.208862 109.956757,40.427452 107.532028,40.453987 
	C105.458969,37.959862 103.759369,35.657795 102.059769,33.355728 
z"/>
<path fill="#3195C7" opacity="1.000000" stroke="none" 
	d="
M160.925781,63.805611 
	C163.344040,61.071400 165.762283,58.337193 168.570099,55.104179 
	C172.333344,53.907906 175.722382,53.274521 179.071320,52.473530 
	C180.062378,52.236481 180.940430,51.526928 181.870270,51.033901 
	C181.860977,56.223419 179.796112,58.401966 175.295868,59.141357 
	C172.750809,59.559505 169.832047,60.472832 168.044815,62.174652 
	C163.936295,66.086845 159.416748,67.657166 153.811279,67.543877 
	C145.870392,67.383385 137.918457,67.768547 129.496521,67.738777 
	C129.021255,67.371750 129.020706,67.186440 129.480667,66.994919 
	C133.926559,66.939941 137.911942,66.891167 142.367493,66.895264 
	C146.465454,66.971863 150.151718,67.398148 153.701111,66.882462 
	C156.205475,66.518616 158.524185,64.876839 160.925781,63.805611 
z"/>
<path fill="#77C02D" opacity="1.000000" stroke="none" 
	d="
M123.330597,184.290848 
	C122.989304,176.212662 123.059692,168.286316 122.953896,160.362320 
	C122.925797,158.257843 122.356590,156.160568 122.025558,153.653885 
	C122.015289,153.247772 122.342209,152.966476 122.802872,152.898834 
	C123.588547,152.699432 123.826080,152.475052 123.976120,152.158066 
	C123.976120,152.158066 124.217728,151.897888 124.687927,151.845856 
	C125.436035,151.530777 125.713936,151.267731 125.991837,151.004684 
	C126.450363,150.638382 126.908882,150.272095 127.550858,150.219971 
	C127.841354,161.739304 127.948410,172.944458 128.055466,184.149597 
	C126.595741,184.247589 125.136017,184.345566 123.330597,184.290848 
z"/>
<path fill="#71B92C" opacity="1.000000" stroke="none" 
	d="
M101.916985,124.827332 
	C99.637871,127.111679 97.358765,129.396042 94.602966,131.428741 
	C91.406219,130.341370 88.723503,129.335724 85.953552,128.727142 
	C83.964775,128.290176 81.795769,128.651245 79.820267,128.181091 
	C76.430099,127.374252 73.128304,126.196129 69.789406,125.173882 
	C69.789406,125.173882 69.879509,125.112762 69.795509,124.889648 
	C69.389709,124.469727 69.067909,124.272919 68.746109,124.076103 
	C68.476364,122.638702 68.206619,121.201309 68.416039,119.581848 
	C71.270004,120.803070 73.528069,122.492996 76.055206,123.522247 
	C78.218155,124.403175 80.689491,124.526909 83.024437,124.985542 
	C85.006149,126.753853 86.755775,127.163094 88.726807,124.730385 
	C90.371498,122.700455 92.470154,121.038330 94.854919,119.347656 
	C97.533722,121.263779 99.725357,123.045555 101.916985,124.827332 
z"/>
<path fill="#67B731" opacity="1.000000" stroke="none" 
	d="
M69.919228,125.483231 
	C73.128304,126.196129 76.430099,127.374252 79.820267,128.181091 
	C81.795769,128.651245 83.964775,128.290176 85.953552,128.727142 
	C88.723503,129.335724 91.406219,130.341370 94.289856,131.594391 
	C93.937103,132.655457 93.466194,133.342697 92.897507,133.936279 
	C86.223320,140.902435 85.267784,140.915833 78.565285,134.238007 
	C75.733109,131.416275 72.888184,128.607330 69.919228,125.483231 
z"/>
<path fill="#1C8DC7" opacity="1.000000" stroke="none" 
	d="
M35.043907,135.996399 
	C35.025433,138.685852 35.006958,141.375320 34.966736,144.509628 
	C34.621281,143.093475 34.036743,141.234970 34.018917,139.371048 
	C33.940865,131.208542 34.026985,123.044495 34.127972,114.410515 
	C34.488747,113.836266 34.705734,113.651184 35.309978,113.185486 
	C39.266460,111.664185 42.766319,110.342171 46.266178,109.020164 
	C46.360023,111.757103 46.453869,114.494049 46.011093,117.613312 
	C38.815731,122.152138 32.958744,126.773224 35.043907,135.996399 
z"/>
<path fill="#8CC314" opacity="1.000000" stroke="none" 
	d="
M118.810349,107.013130 
	C118.687325,107.556168 118.564301,108.099205 117.978470,108.913025 
	C117.348656,109.469116 117.181656,109.754417 117.014656,110.039719 
	C116.923622,110.364944 116.737465,110.621025 115.993477,110.986588 
	C115.353676,111.445206 115.176590,111.725189 114.999496,112.005173 
	C114.501236,112.582069 114.002975,113.158974 112.932297,113.864365 
	C111.923431,114.366615 111.486992,114.740379 111.050552,115.114151 
	C110.266487,116.018852 109.482414,116.923561 108.043671,117.926788 
	C105.271782,116.378212 103.154572,114.731117 101.037354,113.084023 
	C101.224426,112.790871 101.411499,112.497719 102.049240,112.014023 
	C102.748024,111.642693 102.923973,111.407837 103.027771,111.118927 
	C105.164314,108.859917 107.300850,106.600899 109.958069,104.084015 
	C110.648735,103.544662 110.818726,103.263184 110.988708,102.981705 
	C110.988708,102.981705 111.000000,103.000305 111.390007,103.004845 
	C115.325844,102.232651 117.253067,104.298103 118.810349,107.013130 
z"/>
<path fill="#7CC127" opacity="1.000000" stroke="none" 
	d="
M128.459915,184.251099 
	C127.948410,172.944458 127.841354,161.739304 127.845840,150.164734 
	C128.044846,149.438705 128.263474,149.204544 129.177109,149.053314 
	C130.162933,149.007477 130.584915,149.001144 131.006882,148.994812 
	C131.337921,150.703247 131.888123,152.402084 131.963501,154.121735 
	C132.372787,163.457626 132.664856,172.798645 132.998672,182.840652 
	C133.000351,183.726120 133.000626,183.908829 133.000916,184.091553 
	C131.622070,184.178574 130.243210,184.265594 128.459915,184.251099 
z"/>
<path fill="#5CBC47" opacity="1.000000" stroke="none" 
	d="
M109.196426,159.532715 
	C110.017654,167.444916 110.513489,175.373764 111.022095,183.707062 
	C109.238731,184.220642 107.442604,184.329788 105.316635,183.835205 
	C104.654800,176.045319 104.322815,168.859161 103.990822,161.673004 
	C105.617554,160.965103 107.244286,160.257217 109.196426,159.532715 
z"/>
<path fill="#34B175" opacity="1.000000" stroke="none" 
	d="
M56.549641,155.160004 
	C48.080620,155.526443 39.214119,155.684906 30.356689,156.058487 
	C28.569714,156.133865 26.817114,157.024261 24.948626,157.963364 
	C21.908777,156.258652 18.968967,154.129486 16.333860,151.581055 
	C23.274652,151.062546 29.910738,150.963303 36.546825,150.864075 
	C36.546825,150.864075 36.797447,150.756134 36.958271,151.021713 
	C37.400398,151.265594 37.681702,151.243912 37.963005,151.222229 
	C44.027122,152.490753 50.091240,153.759277 56.549641,155.160004 
z"/>
<path fill="#2D95C9" opacity="1.000000" stroke="none" 
	d="
M189.066452,66.737587 
	C191.756866,70.375031 190.940674,73.708771 187.645721,76.230515 
	C184.468369,78.662247 181.394653,77.785797 178.175919,75.418884 
	C176.181534,73.952301 173.289444,73.706528 170.261292,72.713066 
	C169.365219,72.412704 169.124435,72.560158 168.999924,72.955742 
	C168.999924,72.955742 168.841339,73.176788 168.318680,73.113342 
	C167.536957,73.027267 167.277893,73.004623 166.799469,72.876511 
	C166.307968,72.575226 166.114777,72.319695 165.996552,71.740295 
	C165.985489,71.300156 165.978409,71.124176 165.971344,70.948196 
	C165.971344,70.948196 165.988281,71.006569 166.192291,70.884399 
	C166.594406,70.489494 166.792511,70.216751 166.990601,69.944008 
	C168.840363,69.579033 170.758423,69.410446 172.521774,68.797028 
	C174.515503,68.103470 176.370300,67.010475 178.627365,66.273933 
	C179.395004,67.453430 179.820786,68.450172 180.246582,69.446915 
	C183.215866,67.601120 185.503601,71.200752 188.638168,70.384331 
	C188.772324,69.242004 188.919388,67.989799 189.066452,66.737587 
z"/>
<path fill="#E5E6E7" opacity="1.000000" stroke="none" 
	d="
M95.637794,73.619675 
	C101.434029,72.855225 106.807594,72.240822 112.521378,71.587517 
	C112.219658,76.640358 107.947350,77.431046 104.614571,77.743446 
	C95.469543,78.600670 86.254463,78.710617 77.067116,79.116341 
	C76.963654,78.546555 76.860191,77.976761 76.756729,77.406975 
	C82.909531,76.194557 89.062325,74.982147 95.637794,73.619675 
z"/>
<path fill="#268CC3" opacity="1.000000" stroke="none" 
	d="
M186.285965,85.197350 
	C189.143387,89.502098 188.867020,92.992340 185.474609,95.444145 
	C182.068466,97.905876 178.651001,96.785973 175.098953,93.429649 
	C173.444412,91.866295 170.303741,91.875740 167.421265,90.716423 
	C167.364548,89.496170 167.723282,88.731758 168.455200,87.999046 
	C170.856216,87.618141 173.862183,88.934486 174.131134,84.858505 
	C174.868576,84.394966 175.442215,84.196320 176.360046,84.041214 
	C178.140152,84.834557 179.576065,85.584381 180.055115,85.834541 
	C180.055115,88.415962 180.055115,90.468544 180.055115,92.521118 
	C180.446548,92.601440 180.837997,92.681770 181.229431,92.762093 
	C182.914948,90.240509 184.600449,87.718925 186.285965,85.197350 
z"/>
<path fill="#40B55E" opacity="1.000000" stroke="none" 
	d="
M93.957802,184.142761 
	C91.591957,184.245529 89.226112,184.348282 86.432236,183.890976 
	C85.650925,178.170258 85.297653,173.009598 84.944382,167.848938 
	C86.890244,167.142502 88.836105,166.436081 91.516129,165.999664 
	C92.819458,172.227371 93.388634,178.185074 93.957802,184.142761 
z"/>
<path fill="#39B46A" opacity="1.000000" stroke="none" 
	d="
M36.304375,150.588013 
	C29.910738,150.963303 23.274652,151.062546 16.205803,151.280853 
	C15.773041,151.399948 15.795662,151.336807 15.730059,151.010864 
	C15.312073,150.496170 14.959689,150.307434 14.607304,150.118698 
	C13.430640,148.302490 12.253977,146.486282 11.515958,144.332733 
	C16.357637,143.969818 20.760674,143.944244 25.163708,143.918655 
	C28.796448,146.049759 32.429188,148.180862 36.304375,150.588013 
z"/>
<path fill="#F5C836" opacity="1.000000" stroke="none" 
	d="
M168.626587,12.393782 
	C170.694183,13.450268 172.475174,14.268560 173.807404,14.880662 
	C170.842133,17.793795 167.833664,20.749371 165.068832,23.465582 
	C162.847153,21.200857 159.931702,18.228912 157.105957,15.348421 
	C159.522491,13.084665 162.565323,10.234187 165.630875,7.362422 
	C166.292191,8.532468 167.316101,10.344028 168.626587,12.393782 
z"/>
<path opacity="1.000000" stroke="none" 
	d="
M154.059692,104.025055 
	C152.030380,102.083672 150.001068,100.142296 147.285858,98.024033 
	C142.895660,96.567001 141.914703,94.339523 144.208664,90.972832 
	C144.208664,90.972832 144.666626,90.960274 145.191040,91.070496 
	C150.238647,90.439728 152.793655,93.818993 156.062866,96.332123 
	C158.147583,98.417213 160.068832,100.215538 161.965668,102.415543 
	C159.314087,103.219826 156.686890,103.622444 154.059692,104.025055 
z"/>
<path fill="#117CBE" opacity="1.000000" stroke="none" 
	d="
M117.467392,60.974209 
	C113.973434,61.013741 110.736275,61.043732 107.507782,60.890717 
	C102.393723,60.648327 97.285713,60.279320 92.174683,59.971561 
	C86.729729,59.643703 81.232491,59.668674 75.860237,58.860519 
	C73.067711,58.440437 70.495514,56.555706 67.658508,54.944824 
	C67.493240,54.557056 67.521553,54.557922 67.944061,54.716709 
	C70.891136,55.581707 73.391029,56.780434 75.944550,56.908310 
	C86.624466,57.443142 97.320480,57.656635 108.432625,57.989258 
	C112.242645,57.992847 115.630630,57.995071 119.021347,58.299026 
	C119.049690,58.800285 119.075310,58.999809 119.100922,59.199333 
	C118.643311,59.760414 118.185692,60.321495 117.467392,60.974209 
z"/>
<path fill="#CBE6D5" opacity="1.000000" stroke="none" 
	d="
M71.896835,85.063057 
	C72.395416,85.036606 72.894745,85.020134 73.392441,84.982216 
	C81.849304,84.337761 90.299614,83.570045 98.766884,83.124016 
	C101.048500,83.003822 103.381477,83.858627 105.644371,85.114098 
	C94.493660,89.077690 83.048111,87.878143 71.403397,87.264664 
	C71.374428,86.166519 71.635635,85.614784 71.896835,85.063057 
z"/>
<path fill="#54B94E" opacity="1.000000" stroke="none" 
	d="
M103.632614,161.707733 
	C104.322815,168.859161 104.654800,176.045319 104.976410,183.667786 
	C103.582581,184.170517 102.199120,184.236923 100.360420,183.779541 
	C99.270653,176.780518 98.636131,170.305313 98.001610,163.830109 
	C98.001610,163.830109 98.211304,163.715332 98.609848,163.764648 
	C99.331917,163.572189 99.655457,163.330414 99.978989,163.088623 
	C101.077461,162.639908 102.175934,162.191177 103.632614,161.707733 
z"/>
<path fill="#35B169" opacity="1.000000" stroke="none" 
	d="
M84.540314,167.905121 
	C85.297653,173.009598 85.650925,178.170258 86.013580,183.734619 
	C83.962730,184.245010 81.902489,184.351700 79.421669,183.908478 
	C78.665359,178.626663 78.329628,173.894760 77.993904,169.162872 
	C80.041351,168.762344 82.088791,168.361832 84.540314,167.905121 
z"/>
<path fill="#1A98D3" opacity="1.000000" stroke="none" 
	d="
M46.417152,108.580139 
	C42.766319,110.342171 39.266460,111.664185 35.393742,112.984016 
	C35.020309,110.947800 35.019741,108.913773 35.030815,106.443726 
	C36.873783,104.315842 38.661346,102.573120 40.549816,100.947639 
	C42.157780,99.563614 43.881924,98.314575 45.882523,96.996971 
	C46.329628,100.705452 46.448875,104.422783 46.417152,108.580139 
z"/>
<path fill="#64BF77" opacity="1.000000" stroke="none" 
	d="
M142.708206,45.044689 
	C142.945801,48.000587 143.183411,50.956486 143.854828,54.261299 
	C144.288651,54.610214 144.607468,54.664955 144.607468,54.664955 
	C144.607468,54.664955 144.876801,54.467941 144.876801,54.467941 
	C145.343338,54.420700 145.809875,54.373466 146.627258,54.761925 
	C146.972366,56.364174 146.966644,57.530720 146.960922,58.697269 
	C141.155457,58.697269 135.349976,58.697269 129.544510,58.697269 
	C129.312363,58.398800 129.080200,58.100334 128.848053,57.801865 
	C132.044205,55.598587 135.240372,53.395309 138.971222,50.823242 
	C140.573334,48.651203 141.640778,46.847946 142.708206,45.044689 
z"/>
<path fill="#54B95E" opacity="1.000000" stroke="none" 
	d="
M9.208658,134.008987 
	C9.128780,126.770149 12.911258,116.754478 17.956615,112.319786 
	C16.259689,119.558403 14.335204,126.807121 17.938580,134.296600 
	C14.759708,134.536713 11.984183,134.272858 9.208658,134.008987 
z"/>
<path fill="#0D80C2" opacity="1.000000" stroke="none" 
	d="
M35.393482,135.960907 
	C32.958744,126.773224 38.815731,122.152138 45.855988,117.980415 
	C46.302052,119.026161 46.366604,120.087120 46.091125,121.643433 
	C45.915756,122.767784 46.080410,123.396767 46.245068,124.025757 
	C46.340210,124.791977 46.435356,125.558189 46.378654,126.686066 
	C44.242157,129.104767 42.364841,131.282822 40.232880,133.173782 
	C38.939907,134.320587 37.252991,135.023239 35.393482,135.960907 
z"/>
<path fill="#4CB756" opacity="1.000000" stroke="none" 
	d="
M97.620499,163.838867 
	C98.636131,170.305313 99.270653,176.780518 99.955086,183.677933 
	C98.229027,184.216370 96.453064,184.332596 94.317444,184.295807 
	C93.388634,178.185074 92.819458,172.227371 91.879143,166.002243 
	C93.418457,165.105759 95.328918,164.476700 97.620499,163.838867 
z"/>
<path fill="#44B761" opacity="1.000000" stroke="none" 
	d="
M9.124580,134.386505 
	C11.984183,134.272858 14.759708,134.536713 17.953497,134.686646 
	C18.371759,134.572723 18.352106,134.630569 18.323885,134.936462 
	C18.551014,135.487976 18.806364,135.733582 19.061710,135.979187 
	C21.006090,138.419174 22.950472,140.859146 25.029282,143.608887 
	C20.760674,143.944244 16.357637,143.969818 11.505672,143.991577 
	C10.619352,142.728500 10.181962,141.469269 9.828754,139.530975 
	C9.697862,138.252670 9.482786,137.653427 9.267712,137.054184 
	C9.191974,136.290802 9.116238,135.527420 9.124580,134.386505 
z"/>
<path fill="#1AA893" opacity="1.000000" stroke="none" 
	d="
M43.015831,169.061615 
	C46.422356,169.677383 49.828884,170.293137 53.674999,171.402420 
	C55.060333,176.095444 56.490318,180.340607 52.961815,184.118073 
	C50.409622,183.627716 47.857426,183.137360 45.453384,182.268585 
	C48.629745,176.596298 47.527687,171.128616 43.015831,169.061615 
z"/>
<path fill="#1B88C4" opacity="1.000000" stroke="none" 
	d="
M129.020142,67.001114 
	C129.020706,67.186440 129.021255,67.371750 129.037781,67.834549 
	C129.191528,69.235992 129.329285,70.359940 130.027084,72.037048 
	C134.142990,72.727699 137.716583,72.702446 141.245499,73.087082 
	C142.558350,73.230194 143.766617,74.332596 144.554504,74.999931 
	C139.374405,75.378319 134.662369,75.754333 129.727844,76.299126 
	C128.763412,77.007187 128.021484,77.546463 126.864105,78.050827 
	C125.636116,76.895355 124.575462,75.874184 124.076248,74.628090 
	C123.503235,73.197762 123.427757,71.568115 123.136154,70.025047 
	C123.679184,65.233543 125.686539,62.081425 131.348724,63.199715 
	C130.161926,63.979847 128.810364,64.396935 127.458801,64.814011 
	C127.979256,65.543045 128.499695,66.272079 129.020142,67.001114 
z"/>
<path fill="#39A7D1" opacity="1.000000" stroke="none" 
	d="
M51.400192,61.949738 
	C52.986046,58.579407 54.932796,55.099079 57.227875,50.996025 
	C54.269699,50.996025 51.062160,50.996025 47.394138,50.972382 
	C52.303654,50.161591 57.673656,49.374451 63.911602,48.460083 
	C63.053345,52.093525 62.345959,54.278267 62.057713,56.516975 
	C61.710293,59.215279 60.363766,59.936260 57.759651,60.034367 
	C55.740326,60.110443 53.759201,61.200439 51.400192,61.949738 
z"/>
<path fill="#109FA0" opacity="1.000000" stroke="none" 
	d="
M42.763664,168.936462 
	C47.527687,171.128616 48.629745,176.596298 45.193695,181.991348 
	C42.141781,179.793701 39.497715,177.494873 36.877586,174.472565 
	C38.400703,172.092270 39.899887,170.435440 41.399071,168.778610 
	C41.769882,168.789505 42.140690,168.800400 42.763664,168.936462 
z"/>
<path fill="#4DB86C" opacity="1.000000" stroke="none" 
	d="
M101.033005,149.092407 
	C105.781219,147.119705 110.529442,145.147018 115.638336,143.540161 
	C116.379272,145.743484 116.759544,147.580994 117.139824,149.418488 
	C113.657761,151.194199 110.175690,152.969894 106.337708,154.416275 
	C104.332199,152.422104 102.682602,150.757248 101.033005,149.092407 
z"/>
<path fill="#2AAF70" opacity="1.000000" stroke="none" 
	d="
M77.616821,169.055786 
	C78.329628,173.894760 78.665359,178.626663 79.008392,183.750732 
	C77.295692,184.250366 75.575706,184.357803 73.429359,183.950668 
	C72.678474,178.969604 72.353943,174.503113 72.354103,170.022797 
	C73.441940,169.712753 74.205078,169.416534 74.968224,169.120300 
	C75.725395,169.063095 76.482567,169.005905 77.616821,169.055786 
z"/>
<path fill="#20AC80" opacity="1.000000" stroke="none" 
	d="
M68.951401,184.167419 
	C66.915146,184.272812 64.878891,184.378204 62.422714,183.947205 
	C61.332668,179.294510 60.662540,175.178192 60.431091,171.041565 
	C63.445423,171.517288 67.226250,169.387726 67.928131,174.017273 
	C68.437218,177.375183 68.622002,180.782257 68.951401,184.167419 
z"/>
<path fill="#8FC43E" opacity="1.000000" stroke="none" 
	d="
M170.947464,100.207535 
	C174.987457,101.376381 176.390594,104.342789 175.531784,108.094696 
	C174.645264,111.967758 171.802567,113.651817 167.403778,112.607407 
	C167.351608,108.053062 167.680969,104.008484 168.010330,99.963898 
	C168.459152,99.908333 168.907974,99.852760 169.752411,100.066269 
	C170.414520,100.292740 170.680984,100.250137 170.947464,100.207535 
z"/>
<path fill="#94C730" opacity="1.000000" stroke="none" 
	d="
M134.976700,33.927296 
	C139.382004,28.828131 144.160355,29.509176 147.270615,36.326035 
	C147.365952,37.295113 147.540939,37.629025 147.715927,37.962936 
	C147.328476,39.182446 146.941010,40.401958 145.961960,41.642368 
	C144.524689,39.587753 143.679016,37.512238 142.884415,35.562046 
	C140.044998,37.519043 137.511856,39.264957 134.978714,41.010864 
	C134.978714,41.010864 135.002045,41.001320 135.003525,40.642635 
	C134.660629,39.183784 134.316254,38.083618 133.971878,36.983452 
	C133.990524,36.520058 134.009186,36.056660 134.345764,35.146889 
	C134.854996,34.477982 134.959320,34.220242 134.976700,33.927296 
z"/>
<path fill="#44AED8" opacity="1.000000" stroke="none" 
	d="
M181.888733,50.671440 
	C180.940430,51.526928 180.062378,52.236481 179.071320,52.473530 
	C175.722382,53.274521 172.333344,53.907906 168.704376,54.770607 
	C167.502533,49.708336 168.949341,46.363487 172.956024,45.396561 
	C177.270569,44.355347 180.459076,45.873905 181.888733,50.671440 
z"/>
<path fill="#1AAA87" opacity="1.000000" stroke="none" 
	d="
M59.992413,171.061890 
	C60.662540,175.178192 61.332668,179.294510 62.010582,183.791580 
	C59.257240,184.236816 56.496113,184.301285 53.348396,184.241928 
	C56.490318,180.340607 55.060333,176.095444 54.057961,171.493317 
	C54.001339,171.090698 54.419785,170.937607 55.069550,170.959412 
	C57.143677,171.008118 58.568047,171.035004 59.992413,171.061890 
z"/>
<path fill="#2581BA" opacity="1.000000" stroke="none" 
	d="
M150.004272,105.963310 
	C152.520966,109.314713 150.982620,112.458084 148.204636,113.881012 
	C146.289886,114.861786 142.684525,114.380249 140.771545,113.124794 
	C137.314651,110.856071 138.276352,107.457191 141.053772,104.367027 
	C144.143112,106.044571 146.686768,107.833099 149.668381,109.929565 
	C149.813232,108.219139 149.908752,107.091225 150.004272,105.963310 
z"/>
<path fill="#75BF5C" opacity="1.000000" stroke="none" 
	d="
M146.947174,121.976898 
	C145.934280,124.470139 145.471878,127.452911 143.786499,129.348114 
	C140.861893,132.636780 137.180832,135.252731 133.400421,137.835846 
	C132.285873,136.598511 131.587891,135.676117 130.889908,134.753723 
	C136.066376,130.622452 141.242828,126.491173 146.703613,122.181122 
	C146.987930,122.002350 146.947174,121.976898 146.947174,121.976898 
z"/>
<path fill="#329BB9" opacity="1.000000" stroke="none" 
	d="
M143.976501,90.642471 
	C141.914703,94.339523 142.895660,96.567001 146.975174,97.922333 
	C146.667984,99.095673 145.985580,100.193810 144.940033,101.457840 
	C143.375031,101.083328 142.173126,100.542908 140.971237,100.002480 
	C137.486221,96.618484 134.001205,93.234497 129.429138,88.794960 
	C134.777267,89.361771 139.260788,89.836945 143.976501,90.642471 
z"/>
<path fill="#39B276" opacity="1.000000" stroke="none" 
	d="
M100.648834,149.103928 
	C102.682602,150.757248 104.332199,152.422104 105.984680,154.440887 
	C103.242958,155.864243 100.498360,156.933655 97.375671,157.999023 
	C97.180489,154.765350 94.978523,154.212357 92.495514,154.012421 
	C90.529068,153.854095 88.558746,153.744080 86.298706,153.338593 
	C90.759735,151.748199 95.512207,150.431824 100.648834,149.103928 
z"/>
<path fill="#78BA35" opacity="1.000000" stroke="none" 
	d="
M167.657837,99.917603 
	C167.680969,104.008484 167.351608,108.053062 167.010162,112.474869 
	C166.387314,112.657074 165.479523,112.652977 165.212280,112.237183 
	C162.827881,108.527298 159.685135,106.256561 155.098801,106.261589 
	C154.739960,106.261978 154.380066,105.311317 154.040176,104.413864 
	C156.686890,103.622444 159.314087,103.219826 162.036591,102.053947 
	C162.912033,100.802856 163.692184,100.315041 164.472321,99.827225 
	C165.416656,99.841911 166.360992,99.856613 167.657837,99.917603 
z"/>
<path fill="#39B276" opacity="1.000000" stroke="none" 
	d="
M76.758766,101.704292 
	C71.451828,101.807869 66.140755,102.057076 60.841030,101.906715 
	C59.605255,101.871651 58.407993,100.479164 57.193008,99.711235 
	C58.340614,99.061493 59.470718,97.892181 60.638882,97.852837 
	C65.443756,97.691002 70.260201,97.872635 75.617493,98.308167 
	C76.361328,99.693687 76.560043,100.698990 76.758766,101.704292 
z"/>
<path fill="#1E92CC" opacity="1.000000" stroke="none" 
	d="
M159.302567,86.119499 
	C159.246826,85.943031 159.191101,85.766571 158.780579,85.012924 
	C151.950333,84.290085 145.474869,84.144432 138.879211,83.715408 
	C138.541779,82.863419 138.324524,82.294815 138.517365,81.718643 
	C144.287521,81.481621 149.647583,81.252159 155.275467,81.299194 
	C157.640686,81.739182 159.738113,81.902672 162.111298,82.194824 
	C162.907211,82.932510 163.427368,83.541527 163.811768,84.436615 
	C162.599594,86.382462 162.006546,89.555679 159.302567,86.119499 
z"/>
<path fill="#177EBA" opacity="1.000000" stroke="none" 
	d="
M138.107285,81.726204 
	C138.324524,82.294815 138.541779,82.863419 138.877228,83.946190 
	C138.995438,84.460350 138.993744,84.921906 138.993744,84.921906 
	C137.193741,85.002213 135.394485,85.110863 133.593613,85.157967 
	C125.084976,85.380539 122.957291,83.358887 122.753395,74.830933 
	C122.722099,73.521683 122.835190,72.208992 123.008827,70.461472 
	C123.427757,71.568115 123.503235,73.197762 124.076248,74.628090 
	C124.575462,75.874184 125.636116,76.895355 126.964729,78.384857 
	C129.031952,79.443130 130.529007,80.332939 132.148285,80.769974 
	C134.079941,81.291313 136.116287,81.424736 138.107285,81.726204 
z"/>
<path fill="#1885C4" opacity="1.000000" stroke="none" 
	d="
M108.010590,57.987888 
	C97.320480,57.656635 86.624466,57.443142 75.944550,56.908310 
	C73.391029,56.780434 70.891136,55.581707 67.953568,54.707687 
	C67.540558,54.539875 67.536743,54.253963 67.907631,54.052315 
	C68.517601,53.571796 68.756683,53.292931 69.348930,53.166908 
	C71.912094,53.879013 74.102463,54.815784 76.335510,54.931889 
	C85.759666,55.421898 95.199814,55.603390 104.624580,56.084454 
	C105.782623,56.143566 106.883316,57.326008 108.010590,57.987888 
z"/>
<path fill="#2BAD7C" opacity="1.000000" stroke="none" 
	d="
M60.431091,171.041565 
	C58.568047,171.035004 57.143677,171.008118 55.292324,170.957306 
	C59.767803,170.491684 64.670273,170.050003 70.395103,169.775574 
	C71.488113,169.974075 71.758759,170.005341 72.029411,170.036621 
	C72.353943,174.503113 72.678474,178.969604 73.021866,183.804626 
	C71.938889,184.275360 70.837067,184.377563 69.343323,184.323593 
	C68.622002,180.782257 68.437218,177.375183 67.928131,174.017273 
	C67.226250,169.387726 63.445423,171.517288 60.431091,171.041565 
z"/>
<path fill="#8FC544" opacity="1.000000" stroke="none" 
	d="
M135.077759,41.367554 
	C137.511856,39.264957 140.044998,37.519043 142.884415,35.562046 
	C143.679016,37.512238 144.524689,39.587753 145.692596,41.829590 
	C145.042572,42.831802 144.070312,43.667694 142.903137,44.774139 
	C141.640778,46.847946 140.573334,48.651203 139.321960,50.615807 
	C138.354584,47.524555 139.082718,43.610561 135.077759,41.367554 
z"/>
<path fill="#57CAAD" opacity="1.000000" stroke="none" 
	d="
M153.744797,39.921337 
	C155.116623,36.331345 157.922745,35.322319 161.315430,36.228245 
	C164.701691,37.132454 166.722626,39.337559 165.565338,43.593884 
	C161.323547,42.638084 157.534180,41.279713 153.744797,39.921337 
z"/>
<path fill="#2BA6DA" opacity="1.000000" stroke="none" 
	d="
M160.543533,63.650139 
	C158.524185,64.876839 156.205475,66.518616 153.701111,66.882462 
	C150.151718,67.398148 146.465454,66.971863 142.408478,66.570213 
	C142.318466,65.159248 142.657700,64.126213 142.996918,63.093170 
	C148.718369,63.227005 154.439835,63.360836 160.543533,63.650139 
z"/>
<path fill="#48C5C7" opacity="1.000000" stroke="none" 
	d="
M153.500824,40.216007 
	C157.534180,41.279713 161.323547,42.638084 165.525665,44.000748 
	C164.174484,45.918621 162.410553,47.832203 160.308411,49.481968 
	C159.358688,44.954796 156.751068,48.378544 155.140152,47.963928 
	C154.512390,45.479511 153.884628,42.995094 153.500824,40.216007 
z"/>
<path fill="#ACD4BB" opacity="1.000000" stroke="none" 
	d="
M77.227036,101.827736 
	C76.560043,100.698990 76.361328,99.693687 76.072762,98.422226 
	C81.785744,95.953720 87.204033,98.380913 92.812202,99.367851 
	C88.140617,103.000046 82.783669,101.635956 77.227036,101.827736 
z"/>
<path fill="#3189BA" opacity="1.000000" stroke="none" 
	d="
M144.188309,119.381737 
	C141.680359,121.653252 139.405014,123.683037 136.444992,126.323578 
	C136.444992,121.272881 136.444992,117.265884 136.444992,113.810966 
	C138.980881,114.876579 141.824860,116.035057 144.607513,117.325745 
	C144.787170,117.409081 144.494080,118.511604 144.188309,119.381737 
z"/>
<path fill="#7ABD30" opacity="1.000000" stroke="none" 
	d="
M82.895523,124.676682 
	C80.689491,124.526909 78.218155,124.403175 76.055206,123.522247 
	C73.528069,122.492996 71.270004,120.803070 68.613358,119.244949 
	C70.858986,115.335907 73.806412,116.011665 76.699936,118.478539 
	C78.840179,120.303192 80.752647,122.395027 82.895523,124.676682 
z"/>
<path fill="#54B95E" opacity="1.000000" stroke="none" 
	d="
M117.484680,149.313416 
	C116.759544,147.580994 116.379272,145.743484 115.997375,143.504791 
	C118.719193,141.624893 121.442627,140.146194 124.567757,138.967941 
	C125.347054,140.595963 125.724655,141.923538 126.102257,143.251114 
	C123.344681,145.236862 120.587105,147.222610 117.484680,149.313416 
z"/>
<path fill="#2486BB" opacity="1.000000" stroke="none" 
	d="
M176.015839,83.997681 
	C175.442215,84.196320 174.868576,84.394966 173.820129,84.709625 
	C169.421722,81.964844 165.498138,79.104034 161.967560,76.179840 
	C163.913315,75.071625 165.466080,74.026802 167.018829,72.981979 
	C167.277893,73.004623 167.536957,73.027267 168.185699,73.084686 
	C168.705688,74.434082 168.341232,76.228142 169.061310,76.971260 
	C171.031967,79.004967 173.459229,80.596237 175.857361,82.921539 
	C176.011307,83.652824 176.013580,83.825249 176.015839,83.997681 
z"/>
<path fill="#2494CA" opacity="1.000000" stroke="none" 
	d="
M142.545059,63.005333 
	C142.657700,64.126213 142.318466,65.159248 141.938278,66.517334 
	C137.911942,66.891167 133.926559,66.939941 129.480667,66.994919 
	C128.499695,66.272079 127.979256,65.543045 127.458801,64.814011 
	C128.810364,64.396935 130.161926,63.979847 131.750732,63.305855 
	C135.356384,63.005127 138.724777,62.961308 142.545059,63.005333 
z"/>
<path fill="#37A1D0" opacity="1.000000" stroke="none" 
	d="
M188.925201,66.407013 
	C188.919388,67.989799 188.772324,69.242004 188.638168,70.384331 
	C185.503601,71.200752 183.215866,67.601120 180.246582,69.446915 
	C179.820786,68.450172 179.395004,67.453430 178.946960,66.070740 
	C182.343750,62.477242 185.608765,63.146469 188.925201,66.407013 
z"/>
<path fill="#429CCB" opacity="1.000000" stroke="none" 
	d="
M176.360046,84.041206 
	C176.013580,83.825249 176.011307,83.652824 176.020874,83.222122 
	C179.341049,83.504761 182.649384,84.045677 186.121841,84.891975 
	C184.600449,87.718925 182.914948,90.240509 181.229431,92.762093 
	C180.837997,92.681770 180.446548,92.601440 180.055115,92.521118 
	C180.055115,90.468544 180.055115,88.415962 180.055115,85.834541 
	C179.576065,85.584381 178.140152,84.834557 176.360046,84.041206 
z"/>
<path fill="#33A6C7" opacity="1.000000" stroke="none" 
	d="
M115.998779,53.995689 
	C115.999420,52.930542 116.000061,51.865402 115.999893,50.400894 
	C115.999084,50.001526 116.000984,49.999104 116.389999,49.998596 
	C118.517097,49.663609 120.255196,49.329121 122.342339,49.029968 
	C123.557854,49.413731 124.424316,49.762161 125.290779,50.110592 
	C123.730484,52.628922 122.170189,55.147255 120.248672,57.836361 
	C119.887444,58.007137 119.756126,57.938091 119.829239,57.572544 
	C118.601151,56.136562 117.299965,55.066124 115.998779,53.995689 
z"/>
<path fill="#5FBC86" opacity="1.000000" stroke="none" 
	d="
M155.899368,96.045364 
	C152.793655,93.818993 150.238647,90.439728 145.420044,91.075729 
	C147.181442,88.540802 152.990219,88.233612 155.638382,90.497284 
	C156.493790,91.228493 157.140701,92.203590 157.874573,93.690277 
	C157.210556,94.890747 156.554962,95.468056 155.899368,96.045364 
z"/>
<path fill="#65BC5B" opacity="1.000000" stroke="none" 
	d="
M126.469025,143.243134 
	C125.724655,141.923538 125.347054,140.595963 124.913315,138.850586 
	C126.652939,137.268646 128.448700,136.104523 130.567169,134.847061 
	C131.587891,135.676117 132.285873,136.598511 133.043854,137.871582 
	C131.014511,139.893204 128.925156,141.564178 126.469025,143.243134 
z"/>
<path fill="#3BB4CD" opacity="1.000000" stroke="none" 
	d="
M155.195282,48.316391 
	C156.751068,48.378544 159.358688,44.954796 159.977875,49.577133 
	C159.503937,53.187675 159.022278,56.439236 158.540634,59.690796 
	C158.147232,59.734982 157.753830,59.779163 157.360443,59.823349 
	C157.213608,58.617134 157.066772,57.410923 156.865265,55.603241 
	C156.612289,55.116276 156.413971,55.230770 156.215668,55.345268 
	C156.215668,55.345264 156.102707,55.324638 155.797775,55.177101 
	C154.998962,54.026497 154.505081,53.023438 154.011215,52.020378 
	C154.011215,52.020374 153.998184,52.000130 154.230621,51.884022 
	C154.627884,51.482910 154.792709,51.197903 154.957550,50.912895 
	C154.957550,50.912895 154.981308,50.988510 155.114410,50.938087 
	C155.340866,50.825344 155.513885,50.761990 155.513077,50.700905 
	C155.510376,50.493561 155.446228,50.287014 155.405548,50.080162 
	C155.353836,49.609726 155.302124,49.139290 155.195282,48.316391 
z"/>
<path fill="#308CC0" opacity="1.000000" stroke="none" 
	d="
M159.010620,86.295670 
	C162.006546,89.555679 162.599594,86.382462 164.106155,84.550407 
	C165.718201,85.574524 166.900101,86.770943 168.082016,87.967354 
	C167.723282,88.731758 167.364548,89.496170 167.007797,90.601181 
	C165.386581,91.148132 163.763382,91.354492 162.140182,91.560860 
	C161.784698,92.072693 161.429230,92.584534 161.073761,93.096367 
	C160.288727,90.888191 159.503708,88.680016 159.010620,86.295670 
z"/>
<path fill="#268CC3" opacity="1.000000" stroke="none" 
	d="
M140.897781,100.393906 
	C142.173126,100.542908 143.375031,101.083328 144.849319,101.792526 
	C145.121719,101.961311 145.355515,101.977646 145.378021,102.147614 
	C145.400528,102.317581 145.617661,102.629753 145.617661,102.629753 
	C145.617661,102.629753 145.994095,102.574738 145.994095,102.574738 
	C147.267365,103.489090 148.540649,104.403442 149.909088,105.640549 
	C149.908752,107.091225 149.813232,108.219139 149.668381,109.929565 
	C146.686768,107.833099 144.143112,106.044571 141.263580,104.108765 
	C140.893250,102.902763 140.858795,101.844055 140.897781,100.393906 
z"/>
<path fill="#2C90C2" opacity="1.000000" stroke="none" 
	d="
M145.022583,74.997559 
	C143.766617,74.332596 142.558350,73.230194 141.245499,73.087082 
	C137.716583,72.702446 134.142990,72.727699 130.295593,72.293961 
	C137.392212,72.032440 144.780365,72.067162 152.875122,72.401932 
	C154.410797,72.812660 155.239868,72.923340 155.938293,73.283401 
	C155.532532,74.021744 155.257416,74.510719 154.530472,74.999649 
	C151.059952,74.998924 148.041275,74.998238 145.022583,74.997559 
z"/>
<path fill="#7CC127" opacity="1.000000" stroke="none" 
	d="
M100.759521,113.165855 
	C103.154572,114.731117 105.271782,116.378212 107.764740,118.045334 
	C107.222511,119.255653 106.304543,120.445961 104.733063,121.792007 
	C100.169075,121.237206 98.777382,118.689140 98.989738,114.970879 
	C99.487053,114.396484 99.984367,113.822090 100.759521,113.165855 
z"/>
<path fill="#39B276" opacity="1.000000" stroke="none" 
	d="
M71.526779,84.867882 
	C71.635635,85.614784 71.374428,86.166519 71.065865,87.028671 
	C66.436470,86.697273 61.502903,88.472847 57.144920,86.290237 
	C57.186550,85.506172 57.228180,84.722099 57.269810,83.938026 
	C61.898781,84.182922 66.527748,84.427811 71.526779,84.867882 
z"/>
<path fill="#4CB3B5" opacity="1.000000" stroke="none" 
	d="
M153.692932,52.221001 
	C154.505081,53.023438 154.998962,54.026497 155.850601,55.154610 
	C154.198151,58.367439 151.306076,59.373634 147.364532,58.776321 
	C146.966644,57.530720 146.972366,56.364174 146.970428,54.849800 
	C149.100052,53.808525 151.237350,53.115078 153.692932,52.221001 
z"/>
<path fill="#33B0D5" opacity="1.000000" stroke="none" 
	d="
M121.993286,48.994633 
	C120.255196,49.329121 118.517097,49.663609 116.392555,49.995689 
	C115.773705,47.899891 115.541298,45.806499 115.152283,43.353233 
	C115.448242,42.968330 115.900803,42.943295 116.950256,43.259842 
	C121.218727,43.594109 122.607735,45.468544 121.993286,48.994633 
z"/>
<path fill="#3BB4CD" opacity="1.000000" stroke="none" 
	d="
M122.342339,49.029968 
	C122.607735,45.468544 121.218727,43.594109 117.282906,43.335518 
	C118.843452,43.017429 120.671516,42.869514 122.492371,42.931847 
	C127.113342,43.090042 128.120071,45.120197 125.627197,49.941788 
	C124.424316,49.762161 123.557854,49.413731 122.342339,49.029968 
z"/>
<path fill="#68C4A0" opacity="1.000000" stroke="none" 
	d="
M179.590057,26.127804 
	C178.886917,27.854660 177.901550,29.460434 176.906509,31.081968 
	C175.300323,29.609213 174.002930,28.419607 172.512070,27.052595 
	C173.802811,26.023001 175.134995,24.960371 176.609161,23.784473 
	C177.395721,24.432177 178.351776,25.219450 179.590057,26.127804 
z"/>
<path fill="#86BF3A" opacity="1.000000" stroke="none" 
	d="
M98.689835,115.082886 
	C98.777382,118.689140 100.169075,121.237206 104.440567,121.938309 
	C104.026360,122.823761 103.251144,123.718651 102.196457,124.720436 
	C99.725357,123.045555 97.533722,121.263779 95.158485,119.204391 
	C96.113228,117.682808 97.251579,116.438843 98.689835,115.082886 
z"/>
<path fill="#65BC5B" opacity="1.000000" stroke="none" 
	d="
M156.062866,96.332123 
	C156.554962,95.468056 157.210556,94.890747 158.002991,94.008011 
	C160.140335,95.542641 162.140854,97.382698 164.306854,99.524986 
	C163.692184,100.315041 162.912033,100.802856 162.060974,101.652267 
	C160.068832,100.215538 158.147583,98.417213 156.062866,96.332123 
z"/>
<path fill="#1B88C4" opacity="1.000000" stroke="none" 
	d="
M154.982300,74.999695 
	C155.257416,74.510719 155.532532,74.021744 156.331024,73.274185 
	C158.855331,72.849213 160.856247,72.682831 162.857162,72.516449 
	C163.315720,72.382042 163.774292,72.247627 164.850891,72.056503 
	C165.646118,72.001350 165.823334,72.002907 166.000534,72.004456 
	C166.114777,72.319695 166.307968,72.575226 166.799469,72.876511 
	C165.466080,74.026802 163.913315,75.071625 161.824554,76.205574 
	C161.288528,76.294701 161.049362,76.127426 160.797546,75.822220 
	C158.691254,75.344574 156.836777,75.172134 154.982300,74.999695 
z"/>
<path fill="#329BB9" opacity="1.000000" stroke="none" 
	d="
M41.079235,168.565140 
	C39.899887,170.435440 38.400703,172.092270 36.807407,174.145126 
	C35.733768,172.377090 34.754242,170.213028 33.215080,166.812546 
	C36.546600,167.492218 38.653000,167.921951 41.079235,168.565140 
z"/>
<path fill="#2486BB" opacity="1.000000" stroke="none" 
	d="
M139.454956,85.013901 
	C138.993744,84.921906 138.995438,84.460350 138.997406,84.229568 
	C145.474869,84.144432 151.950333,84.290085 158.708420,84.744896 
	C152.632736,85.071335 146.274460,85.088615 139.454956,85.013901 
z"/>
<path fill="#A1C748" opacity="1.000000" stroke="none" 
	d="
M118.920242,106.641823 
	C117.253067,104.298103 115.325844,102.232651 111.381653,102.997849 
	C115.402962,99.981926 117.694321,100.917114 118.920242,106.641823 
z"/>
<path fill="#2486BB" opacity="1.000000" stroke="none" 
	d="
M162.433914,72.381203 
	C160.856247,72.682831 158.855331,72.849213 156.461685,73.024803 
	C155.239868,72.923340 154.410797,72.812660 153.340027,72.504196 
	C156.069122,72.286263 159.039902,72.266113 162.433914,72.381203 
z"/>
<path fill="#75BF5C" opacity="1.000000" stroke="none" 
	d="
M147.000183,122.022919 
	C147.605515,121.510872 148.198578,120.978256 148.791641,120.445641 
	C148.934891,120.675735 149.078125,120.905830 149.221359,121.135933 
	C148.641052,121.331505 148.060730,121.527084 147.213791,121.849777 
	C146.947174,121.976898 146.987930,122.002350 147.000183,122.022919 
z"/>
<path fill="#8FC544" opacity="1.000000" stroke="none" 
	d="
M133.834106,37.221401 
	C134.316254,38.083618 134.660629,39.183784 134.995956,40.653301 
	C134.556717,39.834885 134.126526,38.647118 133.834106,37.221401 
z"/>
<path fill="#39A7D1" opacity="1.000000" stroke="none" 
	d="
M46.630386,50.931644 
	C45.837749,51.609154 44.704391,52.294933 43.206268,52.961487 
	C43.990887,52.274811 45.140274,51.607365 46.630386,50.931644 
z"/>
<path fill="#34B175" opacity="1.000000" stroke="none" 
	d="
M75.633392,154.798767 
	C74.862167,155.120422 73.689445,155.382202 72.277069,155.413818 
	C73.102234,155.035416 74.167061,154.887161 75.633392,154.798767 
z"/>
<path fill="#35B169" opacity="1.000000" stroke="none" 
	d="
M72.354103,170.022797 
	C71.758759,170.005341 71.488113,169.974075 70.809555,169.904022 
	C71.663391,169.567413 72.925148,169.269623 74.577560,169.046051 
	C74.205078,169.416534 73.441940,169.712753 72.354103,170.022797 
z"/>
<path fill="#1C8DC7" opacity="1.000000" stroke="none" 
	d="
M46.396477,123.782402 
	C46.080410,123.396767 45.915756,122.767784 45.990211,122.031815 
	C46.335506,122.462898 46.441692,123.000977 46.396477,123.782402 
z"/>
<path fill="#39B276" opacity="1.000000" stroke="none" 
	d="
M80.614746,154.016617 
	C80.056435,154.355942 79.122253,154.636627 77.795120,154.868805 
	C78.347733,154.532867 79.293304,154.245422 80.614746,154.016617 
z"/>
<path fill="#77C02D" opacity="1.000000" stroke="none" 
	d="
M133.373505,184.163116 
	C133.000626,183.908829 133.000351,183.726120 133.000854,183.269257 
	C133.839737,183.117706 134.677811,183.240295 135.740417,183.590698 
	C135.225327,183.957230 134.485703,184.095947 133.373505,184.163116 
z"/>
<path fill="#A1C748" opacity="1.000000" stroke="none" 
	d="
M111.339722,115.030624 
	C111.486992,114.740379 111.923431,114.366615 112.672737,113.990173 
	C112.533371,114.307365 112.081131,114.627235 111.339722,115.030624 
z"/>
<path fill="#77C02D" opacity="1.000000" stroke="none" 
	d="
M130.996552,148.707550 
	C130.584915,149.001144 130.162933,149.007477 129.424988,149.023453 
	C129.530670,148.668854 129.952347,148.304642 130.658920,147.893707 
	C130.957962,148.038101 130.972092,148.229202 130.996552,148.707550 
z"/>
<path fill="#1976B6" opacity="1.000000" stroke="none" 
	d="
M68.995766,53.014069 
	C68.756683,53.292931 68.517601,53.571796 68.021347,53.965652 
	C67.916649,53.340672 68.069122,52.600700 68.509918,51.605080 
	C68.798233,51.349430 68.845802,51.713818 68.918472,52.122292 
	C68.991142,52.530769 68.995766,53.014069 68.995766,53.014069 
z"/>
<path fill="#7CC127" opacity="1.000000" stroke="none" 
	d="
M138.733078,141.938965 
	C138.616714,142.306320 138.223877,142.629761 137.567474,142.986725 
	C137.688156,142.645187 138.072388,142.270111 138.733078,141.938965 
z"/>
<path fill="#54B95E" opacity="1.000000" stroke="none" 
	d="
M9.203077,137.381134 
	C9.482786,137.653427 9.697862,138.252670 9.872159,139.188202 
	C9.600403,138.919022 9.369423,138.313568 9.203077,137.381134 
z"/>
<path fill="#65B4D5" opacity="1.000000" stroke="none" 
	d="
M46.885933,69.714569 
	C46.714687,69.439888 46.682220,68.844917 46.882469,68.128616 
	C47.085026,68.469627 47.054871,68.931953 46.885933,69.714569 
z"/>
<path fill="#39A7D1" opacity="1.000000" stroke="none" 
	d="
M48.383934,65.318878 
	C48.275875,65.112427 48.418144,64.730141 48.831276,64.192673 
	C48.946182,64.406013 48.790222,64.774529 48.383934,65.318878 
z"/>
<path fill="#1885C4" opacity="1.000000" stroke="none" 
	d="
M119.342690,59.081978 
	C119.075310,58.999809 119.049690,58.800285 119.206085,58.289536 
	C119.388092,57.978310 119.756126,57.938091 119.756126,57.938091 
	C119.756126,57.938091 119.887444,58.007137 119.961571,58.012035 
	C119.885284,58.332829 119.734863,58.648727 119.342690,59.081978 
z"/>
<path fill="#81C31E" opacity="1.000000" stroke="none" 
	d="
M143.276596,180.861603 
	C143.155334,180.574860 143.377014,180.339371 143.921967,180.115402 
	C143.950546,180.307831 143.741974,180.569809 143.276596,180.861603 
z"/>
<path fill="#4CB3B5" opacity="1.000000" stroke="none" 
	d="
M156.368195,55.378845 
	C156.413971,55.230770 156.612289,55.116276 156.821686,55.213276 
	C156.832794,55.424774 156.520706,55.412426 156.368195,55.378845 
z"/>
<path fill="#39A7D1" opacity="1.000000" stroke="none" 
	d="
M50.264549,62.957794 
	C50.209885,62.768208 50.398415,62.492443 50.824936,62.122849 
	C50.877865,62.309879 50.692806,62.590744 50.264549,62.957794 
z"/>
<path fill="#2486BB" opacity="1.000000" stroke="none" 
	d="
M169.245346,72.942474 
	C169.124435,72.560158 169.365219,72.412704 169.836472,72.634544 
	C169.950684,72.755707 169.490768,72.929214 169.245346,72.942474 
z"/>
<path fill="#5CBC47" opacity="1.000000" stroke="none" 
	d="
M110.677193,158.888092 
	C110.718193,159.136505 110.482101,159.412964 109.960510,159.681763 
	C109.916710,159.421463 110.158401,159.168808 110.677193,158.888092 
z"/>
<path fill="#8FC544" opacity="1.000000" stroke="none" 
	d="
M134.782318,34.038101 
	C134.959320,34.220242 134.854996,34.477982 134.497910,34.831146 
	C134.246063,34.636921 134.331329,34.365959 134.782318,34.038101 
z"/>
<path fill="#39A7D1" opacity="1.000000" stroke="none" 
	d="
M49.292583,64.002579 
	C49.224701,63.810886 49.397934,63.520721 49.807816,63.125496 
	C49.874207,63.314995 49.703949,63.609550 49.292583,64.002579 
z"/>
<path fill="#4CB3B5" opacity="1.000000" stroke="none" 
	d="
M144.700287,54.396233 
	C144.876801,54.467941 144.607468,54.664955 144.607468,54.664955 
	C144.607468,54.664955 144.288651,54.610214 144.222763,54.518833 
	C144.156876,54.427452 144.523773,54.324524 144.700287,54.396233 
z"/>
<path fill="#4CB756" opacity="1.000000" stroke="none" 
	d="
M99.661575,163.099380 
	C99.655457,163.330414 99.331917,163.572189 98.696960,163.846497 
	C98.705070,163.622726 99.024620,163.366425 99.661575,163.099380 
z"/>
<path fill="#2486BB" opacity="1.000000" stroke="none" 
	d="
M166.743637,70.033463 
	C166.792511,70.216751 166.594406,70.489494 166.164352,70.872437 
	C166.120499,70.696068 166.308578,70.409500 166.743637,70.033463 
z"/>
<path fill="#2486BB" opacity="1.000000" stroke="none" 
	d="
M165.996552,71.740295 
	C165.823334,72.002907 165.646118,72.001350 165.202896,71.989288 
	C165.116928,71.691017 165.296967,71.403259 165.724182,71.031845 
	C165.978409,71.124176 165.985489,71.300156 165.996552,71.740295 
z"/>
<path fill="#8FC544" opacity="1.000000" stroke="none" 
	d="
M147.777130,37.668625 
	C147.540939,37.629025 147.365952,37.295113 147.217102,36.669167 
	C147.441589,36.709526 147.639954,37.041920 147.777130,37.668625 
z"/>
<path fill="#78BA35" opacity="1.000000" stroke="none" 
	d="
M170.724365,100.095940 
	C170.680984,100.250137 170.414520,100.292740 170.075912,100.178802 
	C170.003784,100.022263 170.501251,99.984344 170.724365,100.095940 
z"/>
<path fill="#A1C748" opacity="1.000000" stroke="none" 
	d="
M115.249619,111.935753 
	C115.176590,111.725189 115.353676,111.445206 115.772484,111.084030 
	C115.842720,111.290672 115.671227,111.578506 115.249619,111.935753 
z"/>
<path fill="#4CB3B5" opacity="1.000000" stroke="none" 
	d="
M155.229187,50.268425 
	C155.446228,50.287014 155.510376,50.493561 155.513077,50.700905 
	C155.513885,50.761990 155.340866,50.825344 155.079071,50.920135 
	C154.958038,50.787304 155.005432,50.621998 155.229187,50.268425 
z"/>
<path fill="#7CC127" opacity="1.000000" stroke="none" 
	d="
M102.792358,111.168747 
	C102.923973,111.407837 102.748024,111.642693 102.301270,111.924126 
	C102.100616,111.669548 102.252060,111.400810 102.792358,111.168747 
z"/>
<path fill="#67B731" opacity="1.000000" stroke="none" 
	d="
M68.842415,124.350311 
	C69.067909,124.272919 69.389709,124.469727 69.804672,124.943314 
	C69.578133,125.021568 69.258423,124.823044 68.842415,124.350311 
z"/>
<path fill="#A1C748" opacity="1.000000" stroke="none" 
	d="
M117.270111,109.968201 
	C117.181656,109.754417 117.348656,109.469116 117.751251,109.087799 
	C117.833084,109.293419 117.679321,109.595047 117.270111,109.968201 
z"/>
<path fill="#4CB3B5" opacity="1.000000" stroke="none" 
	d="
M154.728180,51.023033 
	C154.792709,51.197903 154.627884,51.482910 154.242050,51.887138 
	C154.180313,51.715302 154.339554,51.424240 154.728180,51.023033 
z"/>
<path fill="#A1C748" opacity="1.000000" stroke="none" 
	d="
M110.734802,103.046234 
	C110.818726,103.263184 110.648735,103.544662 110.241943,103.915680 
	C110.163719,103.707062 110.322311,103.408913 110.734802,103.046234 
z"/>
<path fill="#54B95E" opacity="1.000000" stroke="none" 
	d="
M19.042892,135.710846 
	C18.806364,135.733582 18.551014,135.487976 18.313328,134.965134 
	C18.562019,134.939438 18.793047,135.190964 19.042892,135.710846 
z"/>
<path fill="#E7F3ED" opacity="1.000000" stroke="none" 
	d="
M145.952972,102.460045 
	C145.994095,102.574738 145.617661,102.629753 145.617661,102.629753 
	C145.617661,102.629753 145.400528,102.317581 145.495117,102.152084 
	C145.589706,101.986595 145.911850,102.345352 145.952972,102.460045 
z"/>
<path fill="#66BE3E" opacity="1.000000" stroke="none" 
	d="
M118.662857,155.005615 
	C118.672112,155.238617 118.362534,155.516296 117.734375,155.846436 
	C117.725197,155.616043 118.034607,155.333160 118.662857,155.005615 
z"/>
<path fill="#7CC127" opacity="1.000000" stroke="none" 
	d="
M136.012177,144.759369 
	C135.833679,144.988937 135.653320,144.989944 135.202637,144.970749 
	C135.121674,144.679703 135.311020,144.408859 135.756210,144.105804 
	C136.012054,144.073608 136.010330,144.530777 136.012177,144.759369 
z"/>
<path fill="#7CC127" opacity="1.000000" stroke="none" 
	d="
M134.679382,144.980927 
	C134.711288,145.204422 134.457886,145.491013 133.914337,145.834717 
	C133.880829,145.609238 134.137466,145.326645 134.679382,144.980927 
z"/>
<path fill="#CBE6D5" opacity="1.000000" stroke="none" 
	d="
M109.528229,85.548340 
	C109.471420,85.581841 109.585037,85.514847 109.528229,85.548340 
z"/>
<path fill="#44B6E2" opacity="1.000000" stroke="none" 
	d="
M113.894882,41.745945 
	C113.750198,41.727188 113.625648,41.462330 113.657990,41.106865 
	C113.814888,41.016254 113.915016,41.499844 113.894882,41.745945 
z"/>
<path fill="#34B175" opacity="1.000000" stroke="none" 
	d="
M14.730651,150.391846 
	C14.959689,150.307434 15.312073,150.496170 15.750384,150.984192 
	C15.508874,151.077316 15.181436,150.871170 14.730651,150.391846 
z"/>
<path fill="#39B46A" opacity="1.000000" stroke="none" 
	d="
M37.738617,151.086578 
	C37.681702,151.243912 37.400398,151.265594 37.054466,151.118469 
	C37.164635,150.950089 37.339432,150.950516 37.738617,151.086578 
z"/>
<path fill="#71C038" opacity="1.000000" stroke="none" 
	d="
M125.703026,151.051178 
	C125.713936,151.267731 125.436035,151.530777 124.865219,151.836700 
	C124.852943,151.618973 125.133575,151.358337 125.703026,151.051178 
z"/>
<path fill="#71C038" opacity="1.000000" stroke="none" 
	d="
M123.722595,152.184586 
	C123.826080,152.475052 123.588547,152.699432 123.017548,152.878510 
	C123.004074,152.687576 123.236565,152.449341 123.722595,152.184586 
z"/>
<path fill="#39B276" opacity="1.000000" stroke="none" 
	d="
M82.648453,153.642365 
	C82.629608,153.866974 82.427437,153.942886 82.041260,153.959885 
	C81.998878,153.696960 82.201515,153.561172 82.648453,153.642365 
z"/>
<path fill="#F3FAFC" opacity="1.000000" stroke="none" 
	d="
M101.629768,33.360931 
	C103.759369,35.657795 105.458969,37.959862 107.200195,40.641514 
	C102.361603,41.461124 97.485199,41.998070 92.595238,42.190601 
	C92.108543,42.209759 90.821800,39.805023 91.147064,39.088425 
	C92.012833,37.181065 93.220940,34.979309 94.925346,34.029438 
	C96.615204,33.087685 99.076706,33.530548 101.629768,33.360931 
z"/>
<path fill="#1E92CC" opacity="1.000000" stroke="none" 
	d="
M119.829239,57.572544 
	C119.756126,57.938091 119.388092,57.978310 119.203354,57.987801 
	C115.630630,57.995071 112.242645,57.992847 108.432625,57.989258 
	C106.883316,57.326008 105.782623,56.143566 104.624580,56.084454 
	C95.199814,55.603390 85.759666,55.421898 76.335510,54.931889 
	C74.102463,54.815784 71.912094,53.879013 69.348930,53.166908 
	C68.995766,53.014069 68.991142,52.530769 68.994400,52.289612 
	C84.367867,52.698784 99.738075,53.349117 115.553528,53.997570 
	C117.299965,55.066124 118.601151,56.136562 119.829239,57.572544 
z"/>
<path fill="#DDEDF4" opacity="1.000000" stroke="none" 
	d="
M161.049362,76.127426 
	C161.049362,76.127426 161.288528,76.294701 161.431549,76.268967 
	C165.498138,79.104034 169.421722,81.964844 173.656311,84.974518 
	C173.862183,88.934486 170.856216,87.618141 168.455200,87.999046 
	C166.900101,86.770943 165.718201,85.574524 164.241913,84.264328 
	C163.427368,83.541527 162.907211,82.932510 161.896423,81.862183 
	C159.273087,81.274811 157.140381,81.148758 155.007660,81.022705 
	C149.647583,81.252159 144.287521,81.481621 138.517365,81.718643 
	C136.116287,81.424736 134.079941,81.291313 132.148285,80.769974 
	C130.529007,80.332939 129.031952,79.443130 127.380157,78.419769 
	C128.021484,77.546463 128.763412,77.007187 130.198547,76.359924 
	C140.944275,76.210434 150.996826,76.168930 161.049362,76.127426 
z"/>
<path fill="#2486BB" opacity="1.000000" stroke="none" 
	d="
M160.797546,75.822220 
	C150.996826,76.168930 140.944275,76.210434 130.421051,76.191132 
	C134.662369,75.754333 139.374405,75.378319 144.554504,74.999931 
	C148.041275,74.998238 151.059952,74.998924 154.530472,74.999649 
	C156.836777,75.172134 158.691254,75.344574 160.797546,75.822220 
z"/>
<path fill="#308CC0" opacity="1.000000" stroke="none" 
	d="
M155.275467,81.299202 
	C157.140381,81.148758 159.273087,81.274811 161.620667,81.733505 
	C159.738113,81.902672 157.640686,81.739182 155.275467,81.299202 
z"/>
</svg>